<svg xmlns="http://www.w3.org/2000/svg" xmlns:xlink="http://www.w3.org/1999/xlink" width="1920" height="588" viewBox="0 0 1920 588">
  <defs>
    <clipPath id="clip-path">
      <rect id="Rectangle_35" data-name="Rectangle 35" width="1920" height="588" fill="#1580fa"/>
    </clipPath>
  </defs>
  <g id="Mask_Group_2" data-name="Mask Group 2" opacity="0.12" clip-path="url(#clip-path)">
    <g id="home-hero-pattern-no-dots-front" transform="translate(0 -131.916)">
      <path id="Path_43176" data-name="Path 43176" d="M82.161,626.762l7.526,71.772L89.4,700.2l42.03-47.477,22.577,11.869L147.9,827.426l.852-1.484,71-51.742-13.205-52.67.142-.185-.142-.186,15.619-117.023,94.709,74.554L294.014,743.6l48.7-44.7,76.96,60.459L527.449,579.1h0l.568-.927,53.815,5.007,9.514,29.488,5.4,87.721-.994,2.225,76.676-70.659,43.166,2.04,2.272,125v.742l116.008-28.746,36.35,120.918.426-.742L1047.852,766.6l.426-.185-28.824-135.2,164.569-68.619,58.217,169.693L1367.761,557.03l68.866,85.31,39.048-139.834,83.776,81.786.852,2.967v-2.782L1708.259,561.3,1620.082,359.7l110.754,8.16-.142-.742,18.033-140.947,139.579-2.6,1.42.185-1.136-1.113-33.51-120.732,49.981-47.106L1804.246,65.941,1775.138,4.369l-.284-1.669-23.713,65.652-24.565,1.113-64.749-25.037-1.136-2.04,22.719,118.507-197.8,37.833-.994-.185.568.927,18.459,131.3-90.591,14.836.284-.371-.994.371-.426-.927-.142,1.113-.71.186.284.185-50.265,23.553L1343.2,347.835,1310.964,270.5l.284-2.6-48.277,105.154-46.858,24.48L1080.652,176.658v-1.3l-.426.556-1.562-2.6,1.136,3.338L1002.7,289.6,901.316,354.326l.426.371L891.66,485.815l-88.177,15.022-.142-.371L757.9,549.241l-43.45-7.047-4.118-144.471V396.61l-110.47,125-9.514-127.594,44.87-108.121-87.751-2.04,22.293-91.43,1.136-.927-100.1,1.113,15.9,71.586-19.737,17.433.142-2.225-.852,2.6L180.278,161.822l-.852-.371L242.9,389.933l-117,18.36,44.586,125.74-59.495,58.79L47.515,566.859h-.142L-13.4,583.55Zm-.71-1.484-91.585-41.357,57.223-15.764Zm507.907-231.45L568.2,444.643l-49.555-42.1,67.73-48.4ZM1853.234,101.363l-64.039,9.644,15.335-43.4Zm-121.4,124.256-36.066.742,32.942-40.43,22.435,12.055Zm19.453-26.149-3.266,25.779-14.767.371Zm-334.677,290.24,58.5,12.426L1436.77,639.187ZM673.418,538.3l-.426,29.859-10.365-6.491ZM661.774,561.11l-59.637-37.462,71,12.982Zm11.075,8.345-.284,21.513-22.577-2.04,12.069-26.149Zm.852.556,39.332,24.666-39.616-3.709Zm-1.136,22.069L672,631.213l-37.628-8.9,15.051-32.455Zm.852,0,40.61,3.709-41.32,34.866Zm43.734,4.636L833.3,639l-82.5-3.895Zm32.232,38.2-32.942-1.484-.71-36.72Zm86.331,5.378-42.6,43.026L751.8,636.405Zm2.414-.742,106.636-79.375L873.627,669.417l-35.072-28.931,2.13.185Zm636.126-140.391-20.163-22.255,9.8-3.153Zm-9.514-25.778,27.12-9.087-16.045,35.979Zm-48.277,15.022-16.187-69.175,51.969,57.306Zm36.492-11.127,21.157,23.368-55.945-11.869Zm.284-1.3-53.389-58.79,12.5-69.175,50.975,124.627Zm-37.912,11.5-50.549-52.3,34.362-16.506Zm-.568.927-64.039-1.669,13.205-50.815Zm-140.573,71.4,17.607-96.994L1328,507.7Zm54.525-51.186,38.2,47.291-92.153,4.636Zm-55.661,52.113-37.2,1.855V514.56l55.093-51.372Zm19.453-98.663,70.712-26.52-13.347,51.186-21.015,20.215Zm-.426-.927,2.84-28.375,66.026,2.6Zm-.71-1.484-8.8-27.448,11.5.371Zm-.284,2.04-55.377,51.557-.142-82.9,45.864,1.855ZM939.512,723.755,903.446,693.9l38.2-20.586Zm-104.79,5.378,2.7-88.463,35.64,29.488ZM873.769,670.9l27.689,23L835.715,729.5Zm28.682,23.553,36.066,29.859-101.809,5.749Zm40.042-21.7,74.262-40.244L940.364,723.2Zm0-1.113,4.544-112.387,71,71.586Zm56.087-183.973,12.637-17.247,27.121,49.517.284.556.142-.186,31.806,9.273-51.543,99.961Zm34.22-48.4-21.441,29.3L990.771,431.1Zm-41.6-9.273,91.3-59.161-48.987,67.321Zm19.453,39.5L998.3,486.371l-7.81-53.6Zm29.108,49.888,68.866-63.426-37.344,72.514Zm70.57-64.724,72.7,106.452L1071.991,528.84ZM1234.856,514,1185.585,560l49.271-127.965Zm2.7-84.754,37.486-17.618,6.248,19.287Zm-3.124,1.113-50.266,130.561L1111.039,454.1Zm-125.948,24.109-69.718,64.353-26.979-49.331,22.009-30.229,74.83,14.466-1.988,1.113ZM1034.5,438.338l49.839-68.434,25.133,82.9Zm-44.16-9.087,5.254-56.008,87.041-3.524Zm7.242,58.048-49.555,67.877,41.462-122.958Zm.284,1.484,20.447,140.762-70.854-71.586Zm-51.685,70.844-4.544,112.387-39.048,21.142-28.115-23.182Zm-109.618,81.23-2.7,88.648-40.042-45.437ZM833.3,730.432l-113.168,28,73.126-73.812Zm105.784-5.007L913.1,772.53l-76.818-41.357Zm.426,1.3-1.42,59.161L913.953,772.9Zm.852-1.113,105.358,40.615L938.944,786.069Zm.426-1.113,77.954-92.543,28.4,133.529Zm79.374-94.954,51.543-99.776,111.038,32.269-161.871,67.506.426-.371Zm214.693-114.056v48.4l37.912-1.855L1242.382,729.5l-57.507-167.467Zm38.906,46.364,92.863-4.636L1243.234,729.5Zm55.661-53.968,20.873-20.215,64.749,1.669-47.283,66.023ZM1493,463.931l26.552-8.9-42.314,44.139Zm29.25-11.5,32.516-126.111,1.7,92.914Zm34.362-31.9.71,38.575-34.788-5.564Zm-.852-96.623,62.76,35.422L1557.6,418.308Zm-34.22,127.78-5.538-39.5,37.344-84.012Zm35.782,8.716.284,13.724-33.226-19.1Zm.852,0,50.691,8.16,95.277,89.576L1558.6,474.5Zm50.407,7.047-50.407-8.16-.71-39.5L1618.236,361l-.852,2.6,1.278-2.225Zm10.508-109.049-62.761-35.422,96.129-66.393Zm75.682-133.343-10.082-62.87,27.4,14.651Zm18.175-47.662,14.909,7.975-31.806,39.131Zm-18.885,48.775-29.535-3.895,19.311-59.161Zm-.852,1.113-39.048,26.891,10.081-30.786Zm-39.9,29.673,9.656,24.666-41.746,73.255Zm.426-1.3,39.332-27.077-29.677,51.928Zm40.752-27.633L1704,265.677l-29.677,42.655-10.508-26.706Zm.71-.556,35.782-.742-26.411,38.019ZM1788.2,113.6l.284-.742,25.843,61.572L1752.845,196.5l35.356-83.27Zm-36.35,82.9L1738.5,173.876l48.136-59.161Zm-1.278-.371-21.157-11.313,8.378-10.2Zm64.465-20.586h.142L1826.4,154.96l60.489,67.506-132.763-24.851Zm-.142-1.669L1789.9,114.159l35.782,39.873Zm-25.417-61.757,64.323-9.644-27.547,50.63Zm-.852-2.411-5.254-41.728,20.305-.927Zm-.852.556-.852-.927.994,2.411-49.981,61.2-14.483-24.48,28.4-79,30.528-1.3Zm-50.549,63.426-8.8,10.756-15.193-8.16,9.656-26.706Zm-24.707,2.225-27.4-14.651,1.136-.927-1.136.185,19.595-42.1,17.749,30.044ZM1663.673,222.1l-46.857-6.12,66.453-53.226Zm-.426,1.113-10.365,31.528-72.842-9.458L1615.4,216.9Zm-84.2,23.182,72.558,9.458-95.561,66.023Zm-63.329,164.129-10.933-78.634,49.555-8.16Zm5.112,42.1-15.761-15.578,10.366-23.368Zm-.426,1.113-26.837,8.9,10.933-24.666ZM1492.431,463l-28.115,9.458-50.691-123.885,90.307,88.834Zm-93.289-46.55-14.767-18.175,26.979-49.146Zm-.426.927-33.652,16.135,18.743-34.31Zm-35.072,16.877-68.582-2.782,2.982-30.786L1360.8,371.2l22.293,27.262Zm-69.576-2.782-11.927-.556-6.39-19.844,21.3-10.015Zm-18.6-21.328-11.643-36.164,37.06-11.869-3.692,37.648Zm-12.353-35.422,11.5,35.793-38.338,17.989Zm-29.96,54.71-119.274,22.811,76.534-40.059Zm-41.32-17.8,24-12.611L1234,428.508ZM1110.9,452.618l11.5-67.877,66.736,26.891Zm-.71-.927L1085.338,369.9l36.208,14.651Zm-24.565-82.9,44.018-32.64-7.952,47.106ZM995.6,372.13l7.526-80.859,80.084,77.335Zm-.852,0-30.954,1.3,38.338-80.674Zm-31.522,2.411,31.38-1.3-5.254,56.008-39.332-33.939Zm25.7,55.637-95.561,54.71,56.229-88.648Zm0,1.3L946.611,557.03l-53.957-70.473Zm-42.882,126.3L837.987,638.26,891.944,487.3ZM716.3,595.234l41.746-44.88,25.985,4.266,51.827,84.012Zm-42.6-26.52.568-31.9,39.19,6.306,1.42,51.371Zm-.142-33.2-73.126-13.353,108.34-122.587Zm-74.12-12.055,61.767,38.76-12.353,26.52-66.594-6.305-11.927-36.72,28.541-22.069v.185ZM182.692,594.677l17.465-19.844,20.589,28h-.284l.426.371-31.238,28.375Zm22.577,125.183-50.123-55.637,33.936-30.786ZM188.229,558.513l11.359,15.393-17.181,19.473-5.538-29.673Zm-11.5,4.08-4.97-26.52,15.761,21.513ZM358.052,339.118l71.422,57.862-11.785,37.277-73.836,21.7,1.562-1.855L343,455.956Zm103.087,83.641,9.939,23.182-78.1,73.812Zm.994-.185,27.263,6.12-17.607,16.691Zm28.54,6.306,28.682,6.306,7.952,140.02L472.356,446.127Zm.994-.927,25.843-24.48,1.7,30.6Zm-1.278-.185-26.979-5.935,52.253-17.989Zm-20.021,20.215-30.954,94.583-48.845-19.288Zm-79.232,72.884L418.4,435l41.6-12.24Zm-1.562,1.669-46.29-65.466,73.978-21.7ZM343,527.171l-.142-68.99,46.006,64.91Zm45.864-2.967-45.722,80.859L343,528.284Zm-46.858,3.153-61.767,5.564L341.865,458Zm-63.045,5.564L234.377,537l104.932-77.335ZM221.456,602.1l-20.589-28,30.812-34.866Zm11.217-63.241,1.278,1.669-.568-1.484,26.695,16.691-37.77,45.808Zm1.42-.742,43.734-3.895L260.788,554.99Zm45.154-4.08,62.761-5.564.142,77.521-80.51-50.444ZM389.859,524.2l49.271,19.287L422.8,593.565,343.569,605.99Zm50.123,19.844,85.48,33.568L423.795,593.565Zm.426-1.113,31.238-95.7,55.235,129.634Zm79.8-107.565,10.365,2.225L561.1,519.568l-33.084,56.75ZM561.244,517.9l-29.676-79.932,36.35,7.975ZM531,436.669l-12.069-32.64,47.425,40.43Zm-.994-.185-9.94-2.225L518.5,405.512Zm-12.779-34.495L461.707,420.9l4.97-136.681ZM460.855,420.9l-30.244-24.48,35.072-110.718Zm-.71.742L418.825,433.7l11.5-36.35ZM268.171,439.079l-27.831-.927,3.55-46.921L276.833,413.3Zm9.371-25.222L339.593,455.4l-70.428-16.32Zm-9.087,26.335,72.7,16.691-108.2,79.746,7.242-97.365ZM200.3,573.35l-11.075-15.207L230.4,539.226Zm60.773-17.062,78.238,48.961-64.749-17.062h-.142L223.3,602.1Zm80.936,51-24.707,70.1-42.03-87.536Zm.852.185L408.034,637.7l-65.317,59.9-24.849-19.287Zm1.7-.371,77.954-12.24-13.773,42.1Zm64.891,30.6,14.057-43.026L526.74,578.543l-106.92,178.78ZM561.386,520.866l7.952,24.295-39.9,30.786Zm.71-.742,35.782,2.967L570.047,544.6Zm0-1.113,6.674-71.586,29.96,74.554ZM517.794,400.5,491.809,283.667l54.241,1.3Zm-1.42-2.782L467.1,282.925l23.855.556Zm-86.615-2.04L358.62,338.191,465.4,283.481Zm-72.274-58.048-.284.185L342.291,453.545,319.146,289.23,463.695,283.3Zm-15.761,117.95-63.9-42.84,40.61-122.4Zm-64.607-43.211-32.8-21.884.852-.742H244.6l72.7-98.477Zm-37.628,25.779-45.722-1.3L242.9,391.788Zm-.142,1.113L232.105,535.7l-39.048-97.736Zm-8.52,95.7-47-57.121,8.662-38.946Zm.71,2.6-43.024,19.658-17.039-23.182,12.211-54.9Zm-60.631-5.007L127.883,411.261l54.951,66.95Zm4.97,30.415L113.541,591.71l57.223-56.379Zm-64.465,30.971,64.749-29.673,5.68,30.044-50.549,57.12-28.257-15.022Zm-9.229,42.1L83.3,626.02l26.837-30.971Zm-19.027-8.9L101.9,637.147l-11.5,58.6Zm7.81,69.917,11.785-59.532,27.831,14.651Zm41.178-45.066L181.982,595.6l6.816,36.906-34.5,31.342Zm22.719,13.538,50.549,56.193-56.513,102Zm-4.97,158.195,55.945-100.888.284,1.484v-.371l12.5,49.888Zm56.087-104.968-16.045-85.866,31.238-28.375Zm68.156-129.263,41.888,87.35L222.876,603.58Zm22.009,150.962,21.441-61.015,24.281,19.1ZM408.6,638.631l10.365,119.063-75.4-59.346Zm120.552-61.2,40.468-31.157,11.643,36.164Zm119.274,12.426-15.051,32.455-41.32-9.644-9.372-28.746ZM592.2,613.594l40.61,9.644-35.356,76.037Zm6.532,85.31L633.8,623.423l37.344,8.9ZM673.7,631.4l41.178-34.866.71,36.906Zm76.818,4.822,42.03,47.662L718.855,758.25l-2.272-123.7Zm84.486,95.51,77.528,41.728L870.5,849.866Zm78.38,42.284,25.559,13.724v-.371l104.79-19.473L871.639,850.051Zm502.369-283.749,20.163,149.478-67.446-83.455Zm60.631,11.313,44.87-46.735,37.912,127.409Zm83.208,79.19-37.344-125.74,35.356,20.4ZM1558.457,475.8l147.53,84.754-145.542,22.811Zm147.814,83.085-96.839-91.059L1619.514,361Zm-86.189-200.293,43.308-75.852,10.791,27.633,30.1-43.4,25.275,99.776Zm110.044,6.306-25.133-99.034,27.262-39.317,15.477-.371Zm18.743-139.649,3.408-27.077,130.349,24.48Zm77.954-71.4,27.689-50.815,32.8,118.321Zm27.831-52.855-49.13-34.124L1902.079,56.3Zm-51.259-34.866-20.305.927-7.526-59.717ZM1774.57,6.409l7.668,60.644-29.96,1.3Zm-51.827,140.947-17.749-30.044,21.867-46.921,24-.927Zm3.266-77.15-21.441,46.179-41.6-70.474ZM1704,117.312l-19.737,42.47L1662.68,47.4Zm-22.009,44.881-66.736,53.6L1489.307,199.1Zm-67.872,54.524-35.356,28.375h-.142l-23.429,76.594-68.44-121.845Zm-127.509-15.022,67.873,120.918-49.839,8.16Zm17.323,130.376L1515.149,412,1504.358,436.3l-90.875-89.39Zm-92.863,15.578-27.4,49.888L1361.8,370.646Zm-112.884,51.742,3.692-37.648,40.752-12.982,17.465,21.328Zm44.018-51.557-40.184,12.8,8.661-88.092Zm-32.374-74.554L1301.167,361l-36.918,11.684Zm-47.709,101.445-26.979,53.968-18.459-30.229Zm-46.858,23.368-24.849,12.982-67.872-27.448,8.236-48.59-49.13-154.671Zm-85.479-63.241-44.87,33.2L1080.652,180ZM1079.8,178.327l4.4,189.537-80.652-77.706Zm-78.1,113.129-39.048,82.157L949.309,394.57l-46.432-40.244ZM948.741,395.5,892.37,484.516l9.939-129.078Zm-57.933,91.616-.426.742.568-.371L837.135,638.074,803.483,501.949Zm-88.177,15.393,33.226,134.456-51.4-83.27-25.417-4.08Zm-45.864,47.662-41.036,44.139-1.42-51ZM674.412,535.7l34.93-134.827,3.976,141.133ZM598.73,519.753l-29.818-74.368,20.589-49.7ZM633.66,286.82,590.068,391.788,587.086,352.1,518.5,401.246l28.4-116.281Zm-87.325-3.153-54.809-1.3-3.976-17.989,80.936-71.03Zm-74.546-90.132,95.987-.927-80.51,70.659Zm15.051,71.586,3.834,17.247-22.151-.556.284-.186h-.994ZM463.695,282,319,287.932l-.142-.556-.284.371-135.887-123.7Zm-145.684,6.491-74.4,100.888L180.988,163.862ZM192.631,436.483l-.284-.742-.284,1.113-.994.927h.71l-8.662,39.131-55.661-67.692,114.162-17.8ZM82.587,625.278l-34.078-56.75,61.625,25.222Z" transform="translate(13.4 -2.7)" fill="#1580fa"/>
      <path id="Path_43177" data-name="Path 43177" d="M1335.029,34.956c-.852-1.855-.426-4.266.994-5.193a2.486,2.486,0,0,1,3.976,1.3c.852,1.855.426,4.266-.994,5.193C1337.727,37.367,1335.881,36.81,1335.029,34.956Z" transform="translate(579.456 19.939)" fill="#1580fa"/>
    </g>
  </g>
</svg>
