<?xml version="1.0" encoding="utf-8"?>
<!-- Generator: Adobe Illustrator 16.0.0, SVG Export Plug-In . SVG Version: 6.00 Build 0)  -->
<!DOCTYPE svg PUBLIC "-//W3C//DTD SVG 1.1//EN" "http://www.w3.org/Graphics/SVG/1.1/DTD/svg11.dtd">
<svg version="1.1" id="Layer_1" xmlns="http://www.w3.org/2000/svg" xmlns:xlink="http://www.w3.org/1999/xlink" x="0px" y="0px"
	 width="162.587px" height="194.613px" viewBox="0 0 162.587 194.613" enable-background="new 0 0 162.587 194.613"
	 xml:space="preserve">
<g>
	<path fill-rule="evenodd" clip-rule="evenodd" fill="#FE0000" d="M0,108.548c0.003-6.705,0.006-13.41,0.009-20.115
		C1.373,67.45,6.175,47.589,19.544,30.716C34.428,11.93,53.873,1.707,77.877,0.284c15.13-0.896,29.968,0.084,44.005,6.519
		c19.782,9.068,31.751,24.644,37.826,45.209c0.683,2.311,0.39,3.148-2.092,3.719c-10.376,2.387-20.706,4.978-31.032,7.576
		c-2.161,0.544-3.22,0.195-3.878-2.207c-5.237-19.13-20.931-28.814-39.075-28.558c-19.083,0.27-34.499,10.691-40.399,29.196
		c-7.76,24.335-7.713,49.121,0.953,73.121c10.376,28.737,47.866,36.709,67.723,15.071c6.358-6.928,9.765-15.429,12.007-24.387
		c0.694-2.773,1.46-3.491,4.33-2.536c9.94,3.307,19.974,6.334,29.977,9.451c1.611,0.503,3.111,0.616,2.323,3.238
		c-7.908,26.329-22.063,47.475-49.923,55.115c-55.278,15.162-101.594-16.37-109.42-70.842C0.658,116.184,0.394,112.356,0,108.548z"
		/>
</g>
</svg>
